<svg width="920" height="260" viewBox="0 0 920 260" fill="none" xmlns="http://www.w3.org/2000/svg" role="img" aria-label="Aesthetic dark green animated dragon shooting fireballs and flying back and forth">
  <defs>
    <!-- Background: Deep cosmic aesthetic night -->
    <linearGradient id="bg" x1="0" y1="0" x2="920" y2="260" gradientUnits="userSpaceOnUse">
      <stop offset="0%" stop-color="#02010a"/>
      <stop offset="40%" stop-color="#0f0726"/>
      <stop offset="100%" stop-color="#03010f"/>
    </linearGradient>

    <!-- Ambient Nebulas -->
    <radialGradient id="nebula1" cx="20%" cy="30%" r="60%">
      <stop offset="0%" stop-color="#6d28d9" stop-opacity="0.25"/>
      <stop offset="100%" stop-color="#6d28d9" stop-opacity="0"/>
    </radialGradient>
    <radialGradient id="nebula2" cx="80%" cy="60%" r="50%">
      <stop offset="0%" stop-color="#be123c" stop-opacity="0.15"/>
      <stop offset="100%" stop-color="#be123c" stop-opacity="0"/>
    </radialGradient>

    <!-- Fire Light Reflection on Background -->
    <radialGradient id="fireLight" cx="50%" cy="50%" r="50%">
      <stop offset="0%" stop-color="#f59e0b" stop-opacity="0.25"/>
      <stop offset="100%" stop-color="#f59e0b" stop-opacity="0"/>
    </radialGradient>

    <!-- Dragon Colors: Black and Dark Green Mix -->
    <linearGradient id="dragon" x1="0" y1="0" x2="1" y2="1">
      <stop offset="0%" stop-color="#020a05"/>
      <stop offset="50%" stop-color="#052e14"/>
      <stop offset="100%" stop-color="#010502"/>
    </linearGradient>
    
    <!-- Red Spikes -->
    <linearGradient id="spikes" x1="0" y1="0" x2="1" y2="1">
      <stop offset="0%" stop-color="#ef4444"/>
      <stop offset="100%" stop-color="#991b1b"/>
    </linearGradient>
    
    <!-- Glowing Belly/Wing (Reflecting Fire) -->
    <linearGradient id="dragonBelly" x1="0" y1="1" x2="0" y2="0">
      <stop offset="0%" stop-color="#f59e0b"/>
      <stop offset="40%" stop-color="#dc2626"/>
      <stop offset="100%" stop-color="#052e14" stop-opacity="0"/>
    </linearGradient>

    <!-- Dark Bat Wings -->
    <linearGradient id="wingMembrane" x1="0" y1="0" x2="1" y2="1">
      <stop offset="0%" stop-color="#052e14" stop-opacity="0.9"/>
      <stop offset="60%" stop-color="#010502" stop-opacity="0.8"/>
      <stop offset="100%" stop-color="#000000" stop-opacity="0.9"/>
    </linearGradient>

    <!-- Fireball Gradients -->
    <radialGradient id="fireOuter" cx="50%" cy="50%" r="50%">
      <stop offset="0%" stop-color="#fef08a" stop-opacity="0.9"/>
      <stop offset="40%" stop-color="#f97316" stop-opacity="0.8"/>
      <stop offset="80%" stop-color="#dc2626" stop-opacity="0.5"/>
      <stop offset="100%" stop-color="#7f1d1d" stop-opacity="0"/>
    </radialGradient>

    <!-- Aesthetic Glow Filters -->
    <filter id="glow" x="-50%" y="-50%" width="200%" height="200%">
      <feGaussianBlur stdDeviation="6" result="blur"/>
      <feMerge>
        <feMergeNode/>
        <feMergeNode in="SourceGraphic"/>
      </feMerge>
    </filter>
    <filter id="softGlow" x="-30%" y="-30%" width="160%" height="160%">
      <feGaussianBlur stdDeviation="3" result="blur"/>
      <feMerge>
        <feMergeNode/>
        <feMergeNode in="SourceGraphic"/>
      </feMerge>
    </filter>
  </defs>

  <!-- Background Base -->
  <rect width="920" height="260" rx="28" fill="url(#bg)"/>
  <rect width="920" height="260" rx="28" fill="url(#nebula1)"/>
  <rect width="920" height="260" rx="28" fill="url(#nebula2)"/>

  <!-- Magical Starfield -->
  <g fill="#ffffff">
    <circle cx="80" cy="50" r="1.5"><animate attributeName="opacity" values="0.1;0.9;0.1" dur="3s" repeatCount="indefinite"/></circle>
    <circle cx="160" cy="180" r="1"><animate attributeName="opacity" values="0.2;0.8;0.2" dur="4s" repeatCount="indefinite"/></circle>
    <circle cx="280" cy="70" r="2"><animate attributeName="opacity" values="0.3;1;0.3" dur="2.5s" repeatCount="indefinite"/></circle>
    <circle cx="390" cy="210" r="1.5"><animate attributeName="opacity" values="0.1;0.7;0.1" dur="5s" repeatCount="indefinite"/></circle>
    <circle cx="510" cy="40" r="2.5"><animate attributeName="opacity" values="0.4;1;0.4" dur="2s" repeatCount="indefinite"/></circle>
    <circle cx="620" cy="190" r="1.2"><animate attributeName="opacity" values="0.2;0.9;0.2" dur="3.5s" repeatCount="indefinite"/></circle>
    <circle cx="750" cy="60" r="1.8"><animate attributeName="opacity" values="0.3;0.8;0.3" dur="4.5s" repeatCount="indefinite"/></circle>
    <circle cx="850" cy="160" r="1"><animate attributeName="opacity" values="0.1;0.6;0.1" dur="6s" repeatCount="indefinite"/></circle>
    <!-- Small ambient distant stars -->
    <g opacity="0.4">
      <circle cx="120" cy="110" r="0.8"/>
      <circle cx="340" cy="90" r="1"/>
      <circle cx="450" cy="150" r="0.5"/>
      <circle cx="680" cy="130" r="1.2"/>
      <circle cx="810" cy="220" r="0.8"/>
      <circle cx="880" cy="80" r="1"/>
    </g>
  </g>

  <!-- Animated Environment Light (Tracks the dragon and pulses during fireballs) -->
  <g>
    <animateTransform attributeName="transform" type="translate" values="-400 0; 1100 0; 1100 0; -400 0; -400 0" keyTimes="0; 0.45; 0.5; 0.95; 1" dur="20s" repeatCount="indefinite" calcMode="spline" keySplines="0.4 0 0.6 1; 0 0 1 1; 0.4 0 0.6 1; 0 0 1 1"/>
    <circle cx="300" cy="130" r="350" fill="url(#fireLight)" opacity="0">
      <animate attributeName="opacity" values="0; 0; 1; 1; 0; 0; 1; 1; 0; 0; 1; 1; 0; 0; 1; 1; 0; 0" keyTimes="0; 0.06; 0.075; 0.135; 0.15; 0.21; 0.225; 0.285; 0.3; 0.56; 0.575; 0.635; 0.65; 0.71; 0.725; 0.785; 0.8; 1" dur="20s" repeatCount="indefinite"/>
    </circle>
  </g>

  <!-- MASTER DRAGON GROUP -->
  <g>
    <!-- Cross-screen flight & hovering -->
    <animateTransform attributeName="transform" type="translate" values="-400 0; 1100 0; 1100 0; -400 0; -400 0" keyTimes="0; 0.45; 0.5; 0.95; 1" dur="20s" repeatCount="indefinite" calcMode="spline" keySplines="0.4 0 0.6 1; 0 0 1 1; 0.4 0 0.6 1; 0 0 1 1"/>
    
    <!-- Scale to flip the dragon when turning -->
    <g>
      <animateTransform attributeName="transform" type="scale" values="1,1; 1,1; -1,1; -1,1; 1,1" keyTimes="0; 0.45; 0.5; 0.95; 1" dur="20s" repeatCount="indefinite"/>
      
      <!-- Smooth Bobbing Motion -->
      <g>
        <animateTransform attributeName="transform" type="translate" values="0 0; 0 -18; 0 8; 0 0" dur="5s" repeatCount="indefinite" calcMode="spline" keySplines="0.4 0 0.6 1; 0.4 0 0.6 1; 0.4 0 0.6 1"/>
        
        <!-- FAR WING (Behind Dragon) -->
        <g>
          <animateTransform attributeName="transform" type="rotate" values="0 100 110; 28 100 110; -12 100 110; 0 100 110" dur="1.2s" repeatCount="indefinite"/>
          <path d="M 100 110 C 130 30, 40 -10, -10 15 C 20 50, -30 80, -40 120 C 10 105, 50 115, 100 110 Z" fill="#010603"/>
          <path d="M 100 110 L -10 15 M 100 110 L -40 120 M 100 110 L 20 60" stroke="#000000" stroke-width="2" stroke-linecap="round"/>
        </g>
        
        <!-- FIREBALL 1 (Burst at 1.5s) -->
        <g opacity="0">
          <animate attributeName="opacity" values="0; 1; 1; 0; 0" keyTimes="0; 0.01; 0.05; 0.06; 1" dur="20s" begin="1.5s" repeatCount="indefinite"/>
          <animateTransform attributeName="transform" type="translate" values="0 0; 400 40; 400 40; 0 0" keyTimes="0; 0.06; 0.0601; 1" dur="20s" begin="1.5s" repeatCount="indefinite"/>
          <circle cx="160" cy="125" r="5" fill="url(#fireOuter)" filter="url(#glow)"><animate attributeName="r" values="5; 55; 55; 5" keyTimes="0; 0.06; 0.0601; 1" dur="20s" begin="1.5s" repeatCount="indefinite"/></circle>
          <circle cx="160" cy="125" r="3" fill="#fef08a" filter="url(#softGlow)"><animate attributeName="r" values="3; 30; 30; 3" keyTimes="0; 0.06; 0.0601; 1" dur="20s" begin="1.5s" repeatCount="indefinite"/></circle>
          <circle cx="160" cy="125" r="1" fill="#ffffff"><animate attributeName="r" values="1; 12; 12; 1" keyTimes="0; 0.06; 0.0601; 1" dur="20s" begin="1.5s" repeatCount="indefinite"/></circle>
          <circle cx="150" cy="120" r="2" fill="#ea580c" opacity="0.8">
            <animate attributeName="cx" values="150; 50; 50; 150" keyTimes="0; 0.06; 0.0601; 1" dur="20s" begin="1.5s" repeatCount="indefinite"/>
            <animate attributeName="cy" values="120; 80; 80; 120" keyTimes="0; 0.06; 0.0601; 1" dur="20s" begin="1.5s" repeatCount="indefinite"/>
            <animate attributeName="r" values="2; 15; 15; 2" keyTimes="0; 0.06; 0.0601; 1" dur="20s" begin="1.5s" repeatCount="indefinite"/>
          </circle>
        </g>
        
        <!-- FIREBALL 2 (Burst at 4.5s) -->
        <g opacity="0">
          <animate attributeName="opacity" values="0; 1; 1; 0; 0" keyTimes="0; 0.01; 0.05; 0.06; 1" dur="20s" begin="4.5s" repeatCount="indefinite"/>
          <animateTransform attributeName="transform" type="translate" values="0 0; 400 20; 400 20; 0 0" keyTimes="0; 0.06; 0.0601; 1" dur="20s" begin="4.5s" repeatCount="indefinite"/>
          <circle cx="160" cy="125" r="5" fill="url(#fireOuter)" filter="url(#glow)"><animate attributeName="r" values="5; 50; 50; 5" keyTimes="0; 0.06; 0.0601; 1" dur="20s" begin="4.5s" repeatCount="indefinite"/></circle>
          <circle cx="160" cy="125" r="3" fill="#fef08a" filter="url(#softGlow)"><animate attributeName="r" values="3; 25; 25; 3" keyTimes="0; 0.06; 0.0601; 1" dur="20s" begin="4.5s" repeatCount="indefinite"/></circle>
          <circle cx="160" cy="125" r="1" fill="#ffffff"><animate attributeName="r" values="1; 10; 10; 1" keyTimes="0; 0.06; 0.0601; 1" dur="20s" begin="4.5s" repeatCount="indefinite"/></circle>
          <circle cx="150" cy="130" r="2" fill="#ea580c" opacity="0.8">
            <animate attributeName="cx" values="150; 80; 80; 150" keyTimes="0; 0.06; 0.0601; 1" dur="20s" begin="4.5s" repeatCount="indefinite"/>
            <animate attributeName="cy" values="130; 160; 160; 130" keyTimes="0; 0.06; 0.0601; 1" dur="20s" begin="4.5s" repeatCount="indefinite"/>
            <animate attributeName="r" values="2; 12; 12; 2" keyTimes="0; 0.06; 0.0601; 1" dur="20s" begin="4.5s" repeatCount="indefinite"/>
          </circle>
        </g>
        
        <!-- FIREBALL 3 (Burst at 11.5s - heading back) -->
        <g opacity="0">
          <animate attributeName="opacity" values="0; 1; 1; 0; 0" keyTimes="0; 0.01; 0.05; 0.06; 1" dur="20s" begin="11.5s" repeatCount="indefinite"/>
          <animateTransform attributeName="transform" type="translate" values="0 0; 400 40; 400 40; 0 0" keyTimes="0; 0.06; 0.0601; 1" dur="20s" begin="11.5s" repeatCount="indefinite"/>
          <circle cx="160" cy="125" r="5" fill="url(#fireOuter)" filter="url(#glow)"><animate attributeName="r" values="5; 55; 55; 5" keyTimes="0; 0.06; 0.0601; 1" dur="20s" begin="11.5s" repeatCount="indefinite"/></circle>
          <circle cx="160" cy="125" r="3" fill="#fef08a" filter="url(#softGlow)"><animate attributeName="r" values="3; 30; 30; 3" keyTimes="0; 0.06; 0.0601; 1" dur="20s" begin="11.5s" repeatCount="indefinite"/></circle>
          <circle cx="160" cy="125" r="1" fill="#ffffff"><animate attributeName="r" values="1; 12; 12; 1" keyTimes="0; 0.06; 0.0601; 1" dur="20s" begin="11.5s" repeatCount="indefinite"/></circle>
        </g>
        
        <!-- FIREBALL 4 (Burst at 14.5s - heading back) -->
        <g opacity="0">
          <animate attributeName="opacity" values="0; 1; 1; 0; 0" keyTimes="0; 0.01; 0.05; 0.06; 1" dur="20s" begin="14.5s" repeatCount="indefinite"/>
          <animateTransform attributeName="transform" type="translate" values="0 0; 400 20; 400 20; 0 0" keyTimes="0; 0.06; 0.0601; 1" dur="20s" begin="14.5s" repeatCount="indefinite"/>
          <circle cx="160" cy="125" r="5" fill="url(#fireOuter)" filter="url(#glow)"><animate attributeName="r" values="5; 50; 50; 5" keyTimes="0; 0.06; 0.0601; 1" dur="20s" begin="14.5s" repeatCount="indefinite"/></circle>
          <circle cx="160" cy="125" r="3" fill="#fef08a" filter="url(#softGlow)"><animate attributeName="r" values="3; 25; 25; 3" keyTimes="0; 0.06; 0.0601; 1" dur="20s" begin="14.5s" repeatCount="indefinite"/></circle>
          <circle cx="160" cy="125" r="1" fill="#ffffff"><animate attributeName="r" values="1; 10; 10; 1" keyTimes="0; 0.06; 0.0601; 1" dur="20s" begin="14.5s" repeatCount="indefinite"/></circle>
        </g>
        
        <!-- DRAGON BODY -->
        <g>
          <!-- Powerful Tail -->
          <path d="M 20 145 C -40 160, -120 100, -200 140 C -120 190, -40 190, 20 165 Z" fill="url(#dragon)"/>
          <path d="M -200 140 L -230 125 L -215 155 Z" fill="url(#spikes)" filter="url(#softGlow)"/>
          
          <!-- Tail Spikes (Red) -->
          <path d="M -20 143 L -30 125 L -40 148 Z" fill="url(#spikes)"/>
          <path d="M -60 140 L -75 120 L -80 145 Z" fill="url(#spikes)"/>
          <path d="M -110 135 L -130 110 L -130 140 Z" fill="url(#spikes)"/>
          
          <!-- Back Hind Legs -->
          <path d="M 40 145 L 10 180 L 25 195 L 40 185 L 55 155 Z" fill="url(#dragon)"/>
          <path d="M 15 185 L 8 195 M 20 190 L 15 200 M 25 190 L 22 202" stroke="#000000" stroke-width="2" stroke-linecap="round"/>

          <!-- Main Muscular Torso -->
          <path d="M -25 130 C -10 100, 70 85, 120 105 C 130 145, 90 180, 20 165 Z" fill="url(#dragon)"/>
          
          <!-- Spine Spikes (Red) -->
          <path d="M 115 102 L 110 85 L 95 100 Z" fill="url(#spikes)"/>
          <path d="M 90 98 L 80 75 L 65 97 Z" fill="url(#spikes)"/>
          <path d="M 60 97 L 50 72 L 35 99 Z" fill="url(#spikes)"/>
          <path d="M 30 100 L 20 75 L 5 105 Z" fill="url(#spikes)"/>
          <path d="M 0 108 L -15 85 L -25 115 Z" fill="url(#spikes)"/>
          
          <!-- Front Legs -->
          <path d="M 90 145 L 75 185 L 90 195 L 105 185 L 110 150 Z" fill="url(#dragon)"/>
          <path d="M 80 190 L 72 200 M 85 193 L 80 205 M 92 192 L 90 205" stroke="#000000" stroke-width="2" stroke-linecap="round"/>

          <!-- Thick Sinuous Neck -->
          <path d="M 100 110 C 120 90, 135 90, 150 115 C 140 135, 115 145, 95 125 Z" fill="url(#dragon)"/>
          
          <!-- Glowing Belly Scales (Pulses intensely when firing) -->
          <path d="M 30 155 C 60 165, 100 150, 120 130 C 135 120, 150 115, 160 120 C 145 135, 100 170, 30 155 Z" fill="url(#dragonBelly)" filter="url(#softGlow)" opacity="0">
            <animate attributeName="opacity" values="0; 0; 0.9; 0.9; 0; 0; 0.9; 0.9; 0; 0; 0.9; 0.9; 0; 0; 0.9; 0.9; 0; 0" keyTimes="0; 0.06; 0.075; 0.135; 0.15; 0.21; 0.225; 0.285; 0.3; 0.56; 0.575; 0.635; 0.65; 0.71; 0.725; 0.785; 0.8; 1" dur="20s" repeatCount="indefinite"/>
          </path>

          <!-- FIERCE DRAGON HEAD & MAW -->
          <g>
            <!-- Upper Snout / Jaw -->
            <path d="M 140 115 C 160 110, 175 110, 185 115 C 182 118, 170 122, 160 122 C 150 122, 145 120, 140 115 Z" fill="url(#dragon)"/>
            
            <!-- Snout Horn (Red) -->
            <path d="M 175 112 L 180 102 L 185 115 Z" fill="url(#spikes)"/>
            
            <!-- Crown Horns (Red) -->
            <path d="M 135 110 C 120 85, 100 80, 90 85 C 110 95, 125 105, 135 115 Z" fill="url(#spikes)" filter="url(#softGlow)"/>
            <path d="M 140 108 C 125 85, 110 80, 105 85 C 120 95, 130 102, 140 112 Z" fill="#991b1b"/>
            
            <!-- Fierce Glowing Eye -->
            <circle cx="150" cy="113" r="4" fill="#000000"/>
            <circle cx="151" cy="113" r="2.5" fill="#ef4444" filter="url(#softGlow)"/>
            <circle cx="151" cy="113" r="1.5" fill="#ffffff"/>
            <path d="M 148 113 L 154 113" stroke="#000000" stroke-width="1.5"/>
            
            <!-- Animated Lower Jaw (Opens for fireballs!) -->
            <g>
              <animateTransform attributeName="transform" type="rotate" values="0 145 125; 0 145 125; 18 145 125; 18 145 125; 0 145 125; 0 145 125; 18 145 125; 18 145 125; 0 145 125; 0 145 125; 18 145 125; 18 145 125; 0 145 125; 0 145 125; 18 145 125; 18 145 125; 0 145 125; 0 145 125" keyTimes="0; 0.06; 0.075; 0.135; 0.15; 0.21; 0.225; 0.285; 0.3; 0.56; 0.575; 0.635; 0.65; 0.71; 0.725; 0.785; 0.8; 1" dur="20s" repeatCount="indefinite"/>
              
              <path d="M 145 125 C 155 132, 170 135, 180 135 C 175 138, 160 142, 145 135 Z" fill="url(#dragon)"/>
              
              <!-- Sharp Teeth -->
              <g fill="#ffffff" filter="url(#softGlow)">
                <!-- Upper Teeth (static) -->
                <path d="M 160 120 L 162 128 L 165 120"/>
                <path d="M 170 119 L 172 126 L 175 118"/>
                <path d="M 180 116 L 183 124 L 185 115"/>
                <!-- Lower Teeth (moving) -->
                <path d="M 155 130 L 157 122 L 160 132"/>
                <path d="M 165 133 L 168 126 L 172 135"/>
              </g>
            </g>
          </g>
        </g>
        
        <!-- NEAR WING (Massive bat wing in foreground) -->
        <g>
          <animateTransform attributeName="transform" type="rotate" values="0 100 110; -38 100 110; 18 100 110; 0 100 110" dur="1.2s" repeatCount="indefinite"/>
          
          <!-- Leathery Wing Membrane -->
          <path d="M 100 110 C 130 -10, 20 -60, -60 -20 C -20 30, -80 70, -100 120 C -40 105, 20 125, 100 110 Z" fill="url(#wingMembrane)"/>
          
          <!-- Wing Bones / Fingers -->
          <path d="M 100 110 L -60 -20 M 100 110 L -100 120 M 100 110 L -40 50 M 100 110 L -80 80" stroke="#010603" stroke-width="4" stroke-linecap="round"/>
          
          <!-- Dynamic Lighting: Fire Reflection on Wing (Pulses intensely when firing) -->
          <path d="M 100 110 C 80 100, 60 100, 40 105 C 50 120, 80 125, 100 110 Z" fill="#f59e0b" filter="url(#softGlow)" opacity="0">
            <animate attributeName="opacity" values="0; 0; 0.5; 0.5; 0; 0; 0.5; 0.5; 0; 0; 0.5; 0.5; 0; 0; 0.5; 0.5; 0; 0" keyTimes="0; 0.06; 0.075; 0.135; 0.15; 0.21; 0.225; 0.285; 0.3; 0.56; 0.575; 0.635; 0.65; 0.71; 0.725; 0.785; 0.8; 1" dur="20s" repeatCount="indefinite"/>
          </path>
        </g>
        
      </g>
    </g>
  </g>

  <!-- Premium Frame Border -->
  <rect width="920" height="260" rx="28" fill="none" stroke="#052e14" stroke-width="2"/>
  <rect width="916" height="256" x="2" y="2" rx="26" fill="none" stroke="#020a05" stroke-width="1"/>
</svg>